<svg id="Capa_1" enable-background="new 0 0 507.521 507.521" height="512" viewBox="0 0 507.521 507.521" width="512" xmlns="http://www.w3.org/2000/svg"><g><path d="m9.637 471.479h488.247" fill="#fcee21"/><g><path d="m26.861 190.864v280.615h114.512v-280.615" fill="#99ebfa"/><g><path d="m123.869 190.864h17.504v-154.822h-114.512v154.822h16.999" fill="#fff"/></g><path d="m196.505 352.652h114.512v118.826h-114.512z" fill="#ffee80"/><g><path d="m196.505 197.831h114.512v154.822h-114.512z" fill="#fff"/></g><g><path d="m366.148 94.701h114.512v154.822h-114.512z" fill="#fff"/></g><path d="m366.148 386.923v84.556h114.513v-221.956h-114.513v56.421" fill="#a0e5a5"/></g><g><path d="m490.661 94.701c0-5.523-4.477-10-10-10h-114.513c-5.523 0-10 4.477-10 10v211.243c0 12.84 20 12.859 20 0v-46.421h94.512v201.956h-94.512v-74.555c0-12.84-20-12.859-20 0v74.555h-35.132v-263.648c0-5.523-4.477-10-10-10h-114.511c-5.523 0-10 4.477-10 10v263.648h-35.132v-270.615-154.822c0-5.523-4.477-10-10-10h-114.512c-5.523 0-10 4.477-10 10v425.437h-7.224c-12.84 0-12.859 20 0 20h488.247c12.84 0 12.859-20 0-20h-7.224v-366.778zm-114.513 144.822v-134.822h94.512v134.822zm-169.643-31.692h94.512v134.821h-94.512zm-169.644 253.648v-260.615h7c12.84 0 12.859-20 0-20h-7v-134.822h94.512v134.821h-7.504c-12.84 0-12.859 20 0 20h7.504v260.615h-94.512zm169.644 0v-98.827h94.512v98.827z"/><path d="m357.83 351.926c3.046 4.528 9.323 5.777 13.87 2.76 4.546-3.016 5.764-9.334 2.76-13.86-3.013-4.539-9.331-5.783-13.86-2.77-4.537 3.018-5.787 9.341-2.77 13.87z"/><path d="m93.35 187.036c-2.094-5.022-8.022-7.503-13.06-5.41-5.032 2.09-7.49 8.025-5.41 13.06 2.079 5.033 8.032 7.497 13.06 5.41 5.05-2.097 7.478-8.012 5.41-13.06z"/></g></g></svg>